<svg xmlns="http://www.w3.org/2000/svg" viewBox="0 0 735 787">
  <path d="M4.900000000000006 786Q-2.0999999999999943 782 0.9000000000000057 772.0Q3.9000000000000057 762 16.900000000000006 740L105.9 597Q101.9 594 88.9 585.5Q75.9 577 70.9 571L110.9 587Q86.9 566 80.9 554L115.9 574Q114.9 564 104.4 556.5Q93.9 549 87.9 534Q99.9 538 107.9 542.5Q115.9 547 122.9 553Q125.9 498 142.9 439.5Q159.9 381 188.9 326Q196.9 335 206.4 352.5Q215.9 370 220.9 387Q223.9 338 208.9 295Q259.9 218 337.9 154Q343.9 158 347.4 168.0Q350.9 178 354.9 199Q361.9 176 358.9 137Q440.9 80 538.9 44.0Q636.9 8 734.9 0Q665.9 162 558.9 300Q453.9 300 408.9 323Q461.9 323 486.9 325.0Q511.9 327 531.9 334Q443.9 440 349.9 507.5Q255.9 575 168.9 597Q175.9 601 183.9 606.5Q191.9 612 194.9 617L154.9 601Q174.9 617 184.9 634L149.9 617Q151.9 627 161.9 633.0Q171.9 639 177.9 654Q158.9 647 136.9 626L44.900000000000006 757Q18.900000000000006 794 4.900000000000006 786ZM131.9 591Q177.9 508 237.89999999999998 428.0Q297.9 348 365.4 277.5Q432.9 207 501.4 152.0Q569.9 97 632.9 65Q474.9 131 346.4 266.0Q217.9 401 131.9 591Z" fill="#000000"/>
</svg>
