<svg xmlns="http://www.w3.org/2000/svg" viewBox="0 0 787 787">
  <path d="M31.161111111111126 786.0Q24.161111111111126 782.0 27.161111111111126 772.0Q30.161111111111126 762.0 43.161111111111126 740.0L132.16111111111113 597.0Q128.16111111111113 594.0 115.16111111111113 585.5Q102.16111111111113 577.0 97.16111111111113 571.0L137.16111111111113 587.0Q113.16111111111113 566.0 107.16111111111113 554.0L142.16111111111113 574.0Q141.16111111111113 564.0 130.66111111111113 556.5Q120.16111111111113 549.0 114.16111111111113 534.0Q126.16111111111113 538.0 134.16111111111113 542.5Q142.16111111111113 547.0 149.16111111111113 553.0Q152.16111111111113 498.0 169.16111111111113 439.5Q186.16111111111113 381.0 215.16111111111113 326.0Q223.16111111111113 335.0 232.66111111111113 352.5Q242.16111111111113 370.0 247.16111111111113 387.0Q250.16111111111113 338.0 235.16111111111113 295.0Q286.16111111111115 218.0 364.16111111111115 154.0Q370.16111111111115 158.0 373.66111111111115 168.0Q377.16111111111115 178.0 381.16111111111115 199.0Q388.16111111111115 176.0 385.16111111111115 137.0Q467.16111111111115 80.0 565.1611111111112 44.0Q663.1611111111112 8.0 761.1611111111112 0.0Q692.1611111111112 162.0 585.1611111111112 300.0Q480.16111111111115 300.0 435.16111111111115 323.0Q488.16111111111115 323.0 513.1611111111112 325.0Q538.1611111111112 327.0 558.1611111111112 334.0Q470.16111111111115 440.0 376.16111111111115 507.5Q282.16111111111115 575.0 195.16111111111113 597.0Q202.16111111111113 601.0 210.16111111111113 606.5Q218.16111111111113 612.0 221.16111111111113 617.0L181.16111111111113 601.0Q201.16111111111113 617.0 211.16111111111113 634.0L176.16111111111113 617.0Q178.16111111111113 627.0 188.16111111111113 633.0Q198.16111111111113 639.0 204.16111111111113 654.0Q185.16111111111113 647.0 163.16111111111113 626.0L71.16111111111113 757.0Q45.161111111111126 794.0 31.161111111111126 786.0ZM158.16111111111113 591.0Q204.16111111111113 508.0 264.16111111111115 428.0Q324.16111111111115 348.0 391.66111111111115 277.5Q459.16111111111115 207.0 527.6611111111112 152.0Q596.1611111111112 97.0 659.1611111111112 65.0Q501.16111111111115 131.0 372.66111111111115 266.0Q244.16111111111113 401.0 158.16111111111113 591.0Z" fill="#000000"/>
</svg>
